<svg xmlns="http://www.w3.org/2000/svg" viewBox="0 0 32 32">
  <circle cx="16" cy="16" r="16" fill="#ff5a1f"/>
  <path fill="#fff" d="M20.7 18.2c-.6-.3-1.9-1-2.2-1.1-.3-.1-.5-.2-.7.2-.2.3-.8 1.1-1 1.3-.2.2-.4.3-.7.1-.3-.2-1.4-.5-2.7-1.7-1-.9-1.7-2-1.9-2.3-.2-.3 0-.5.1-.6.1-.2.3-.4.5-.6.1-.2.2-.3.3-.5.1-.2 0-.4 0-.6-.1-.2-.7-1.7-1-2.3-.3-.6-.5-.5-.7-.5h-.6c-.2 0-.5.1-.8.4-.3.3-1.1 1-1.1 2.5 0 1.5 1.1 2.9 1.2 3.1.1.2 2.2 3.4 5.4 4.7.7.3 1.3.5 1.8.6.7.2 1.4.2 1.9.1.6-.1 1.9-.8 2.1-1.5.3-.7.3-1.4.2-1.5-.1-.2-.3-.2-.6-.3z"/>
  <path fill="#fff" d="M16 4a12 12 0 0 0-10.4 18l-1.5 5.4a1 1 0 0 0 1.2 1.2l5.4-1.5A12 12 0 1 0 16 4zm0 22a9.9 9.9 0 0 1-5.1-1.4l-.4-.2-3.6 1 1-3.5-.2-.4A10 10 0 1 1 16 26z"/>
</svg>
