<svg xmlns="http://www.w3.org/2000/svg" viewBox="0 0 32 32">
  <circle cx="16" cy="16" r="16" fill="#25D366"/>
  <path fill="#fff" d="M23.5 8.5A10.6 10.6 0 0 0 16.05 5.3c-5.86 0-10.63 4.77-10.63 10.63 0 1.87.49 3.7 1.42 5.31L5.3 26.7l5.6-1.47a10.6 10.6 0 0 0 5.14 1.31h.01c5.86 0 10.63-4.77 10.63-10.63 0-2.84-1.11-5.51-3.13-7.41zm-7.45 16.36h-.01a8.8 8.8 0 0 1-4.49-1.23l-.32-.19-3.33.87.89-3.25-.21-.33a8.79 8.79 0 0 1-1.35-4.7c0-4.86 3.96-8.82 8.83-8.82a8.77 8.77 0 0 1 8.82 8.83c0 4.87-3.96 8.82-8.83 8.82zm4.84-6.61c-.27-.13-1.58-.78-1.82-.87-.24-.09-.42-.13-.6.13-.18.27-.69.87-.85 1.05-.16.18-.31.2-.58.07-.27-.13-1.14-.42-2.17-1.34-.8-.71-1.34-1.6-1.5-1.86-.16-.27-.02-.42.12-.55.12-.12.27-.31.4-.47.13-.16.18-.27.27-.45.09-.18.05-.34-.02-.47-.07-.13-.6-1.45-.82-1.99-.22-.52-.44-.45-.6-.46-.16-.01-.34-.01-.52-.01-.18 0-.47.07-.71.34-.24.27-.94.92-.94 2.24s.96 2.6 1.1 2.78c.13.18 1.89 2.89 4.59 4.05.64.28 1.14.44 1.53.57.64.2 1.23.17 1.69.1.52-.08 1.58-.65 1.81-1.27.22-.62.22-1.16.16-1.27-.07-.11-.24-.18-.51-.31z"/>
</svg>
